
<global>
amp_veltrack=0
ampeg_release=1.25
xf_cccurve=gain
xfin_hicc1=127
xfout_hicc1=127
xfout_locc1=127
</global>

<group>
group_label=PP
lpc_hicc1=42
lpc_locc1=0

<region>
end=96000
hikey=A3
hivel=127
lokey=G#3
lovel=1
lpc=fBIzQ/ier8OJhd1C28VRQi6aEUI66JFAWSY5wdaqp8CcxzbBGQQcwa+iUb6v5yrAEA2FP7HpyEBDUeY+IqnXP/COeEAkvsG+9jwzvzQC6T+K0dW/IqSMwEWT2MBLsgRB
lpc_rms=-42.17
offset=4141
pitch_keycenter=G#3
sample=Basstrombone_rip_PP_G#4.opus
</region>

<region>
end=96000
hikey=A2
hivel=127
lokey=G#2
lovel=1
lpc=c2EgQ6ZzsMMZ3R9Dlf8oQp5oDULZSFbBhMmfwSIMEsEyxTTB89MvwBG8YkDP9iM/54wPQb15rEC3sqHAigLTPyJ5Uj/6+cvAgy/jvkm4kkDWjx1AxoCFwI6XVsDoCGpA
lpc_rms=-45.87
offset=7580
pitch_keycenter=G#2
sample=Basstrombone_rip_PP_G#3.opus
</region>

<region>
end=96000
hikey=A1
hivel=127
lokey=G#1
lovel=1
lpc=463PQj6LhcOo/EZDxbUKwr1nKEIL0TTCfPW8vwF4hcAoHLBAk1fovhIEAUCtKsw/c56QPz9IiUBBhDDBOaihQGQF2r7CLgzA7nmXQMrgFr9fdFy+rTXevXC6msDgOGdA
lpc_rms=-50.84
offset=7730
pitch_keycenter=G#1
sample=Basstrombone_rip_PP_G#2.opus
</region>

<region>
end=96000
hikey=G3
hivel=127
lokey=F#3
lovel=1
lpc=4S0dQ9dOmsPfpsJClUU3Qh+hB0LwAKFAPaQWwfwu5sBXSzXBn3cSwVrhOcAFnc2/I56BQFzfrECctTZAtqplQPjzmD/LwQ/A3asKv63dRj3WGDXABBvVv2toL8B6JpVA
lpc_rms=-45.72
offset=1116
pitch_keycenter=F#3
sample=Basstrombone_rip_PP_F#4.opus
</region>

<region>
end=96000
hikey=G2
hivel=127
lokey=F#2
lovel=1
lpc=LVcJQ7eym8N0nyNDNHCDQZv+C0LZ3ZXB0S+4wey5nT+h1JDANiS3v/K1mb8f3Jm/zQFBQQNFmEBlfkvBzQuaQJ1jpUA+QhTB9vB7P3IG1kBg1Bm/IDJZwF9Vq8A8S6tA
lpc_rms=-48.44
offset=3763
pitch_keycenter=F#2
sample=Basstrombone_rip_PP_F#3.opus
</region>

<region>
end=96000
hikey=G1
hivel=127
lokey=F#1
lovel=1
lpc=AaSyQsSnZsPFSzJD+bgiwp3zIUI6iSLCmGBgP4DXLsCVdSJBTW5JwYzrF0EmD5I/Lc6pwMKMDEEussXArX4lv1t00j+qkTu9Hf6JwKhspEAF8mtApdXUwOAUuz4YIbk/
lpc_rms=-51.50
offset=5967
pitch_keycenter=F#1
sample=Basstrombone_rip_PP_F#2.opus
</region>

<region>
end=96000
hikey=F3
hivel=127
lokey=E3
lovel=1
lpc=HfooQyyIr8MErg1DPEIMQjXdLUJHNO/Awnm3wbngF0DMdhjBET4Rwf0qA0F5AdTA8Jk+P4pOJUHeVbXAxujiP2+v3UCsE/DAzDaPv5lW5UB/51PAiUKPwJGrnz8xCc4/
lpc_rms=-45.32
offset=6622
pitch_keycenter=E3
sample=Basstrombone_rip_PP_E4.opus
</region>

<region>
end=96000
hikey=F2
hivel=127
lokey=E2
lovel=1
lpc=rSb6QgYlksM6viBDHd3gQavviEFzDsTBTEaXwSPJMr+Ct2y/jIxsPSltwEByqLk/33NJP9wRL0Bd0GrA/4UZwF4yHD/9H0a+M6UEP2LHkUD1fWG+0/1cwK4neMC7dntA
lpc_rms=-48.19
offset=6252
pitch_keycenter=E2
sample=Basstrombone_rip_PP_E3.opus
</region>

<region>
end=96000
hikey=F1
hivel=127
lokey=E1
lovel=1
lpc=lcrBQg56gsP02VVDNaEzwouo9UEEkSvC4LSAPvTlYUAwonlA6mo2wNjuJUCfQAFArRwwwPzTa0Dcj9m/gSYFwPgbmj/nLwHAGCDNvRMKekA18Z4+6W9XvwiRiMAoTDxA
lpc_rms=-50.96
offset=8066
pitch_keycenter=E1
sample=Basstrombone_rip_PP_E2.opus
</region>

<region>
end=96000
hikey=D#3
hivel=127
lokey=D3
lovel=1
lpc=z1JEQ8us8cNEtJZDhjhwwb/ut0JwvnHCnYUfwoEiy0CrXhfBarCJwKje30DWqRrAvtueQaLJ4EAYz2rBphbAQGqYq7+B2UHBDTMyQJ4qv0D2by/AVDQoPwMsM0ChDAjA
lpc_rms=-45.86
offset=4560
pitch_keycenter=D3
sample=Basstrombone_rip_PP_D4.opus
</region>

<region>
end=96000
hikey=D#2
hivel=127
lokey=D2
lovel=1
lpc=oe/+QksqjsP3sgZDJSIkQmiqV0FusE/B+Q5RwSSTAcG1dyHAA5MswF02Fb83cl1AxO+iQO16IUDSdtk8PZcAPyVgm78dSifA8LG6v2yBwD0+M8w/j4wMvrZx/z4uhy2+
lpc_rms=-48.48
offset=9101
pitch_keycenter=D2
sample=Basstrombone_rip_PP_D3.opus
</region>

<region>
end=96000
hikey=D#1
hivel=127
lokey=D1
lovel=1
lpc=wIagQq/5KcOjy5pCWxNRQcJbjEGdtxTBx6CmwCt/TcDUGSM/DnSwv62yH8CvDky/WYzKP8uuDEBYHbE/O+I5P2JNI7+UVwvAu3tZP3UsNr82RRa+P0foPwh007+8NB4/
lpc_rms=-55.82
offset=15137
pitch_keycenter=D1
sample=Basstrombone_rip_PP_D2.opus
</region>

<region>
end=96000
hikey=D#4
hivel=127
lokey=C4
lovel=1
lpc=LXBCQ0NGysPVLiBD009KQibUJUJCoofA+F/FwQbrkMBfDQDBVSUnwf0xIUDv5iu/n4n5P1UrB0Ec33m/4zPbPxeDMkCkuUXA4bl0O+lkkD/tcQLAWJL/v4T+e8AaHqZA
lpc_rms=-42.47
offset=2190
sample=Basstrombone_rip_PP_C5.opus
</region>

<region>
end=96000
hikey=C#3
hivel=127
lokey=C3
lovel=1
lpc=rKk6Q8VL4sMVRIpDnv0gwC17kEJMUW3CX67SwXPS/77W/PDAL2imv8lFSkGuyRBA5GrjQEp+IEDMFj3BXGkavnP9BkGE2NDA/Noswf5abUHJhQ5B0dsrwcPCFsG3SgZB
lpc_rms=-45.07
offset=4977
pitch_keycenter=C3
sample=Basstrombone_rip_PP_C4.opus
</region>

<region>
end=96000
hikey=C#2
hivel=127
lokey=C2
lovel=1
lpc=uGXgQmvNksOjTGNDJVgEwmrCfkFt+AjCTE+4QMvalMDFGFZAlLujvwElEkC9spy/xvKnP9mFoUCLDMbAlDbSP21GAECCR6TASqsPPz/GlUBdcw9Ah3KxwE0ikr/8uRFA
lpc_rms=-50.26
offset=7273
pitch_keycenter=C2
sample=Basstrombone_rip_PP_C3.opus
</region>

<region>
end=96000
hikey=B3
hivel=127
lokey=A#3
lovel=1
lpc=GARMQ5I//sNWibZDoTvcwqEnJUMHJMrCXFUQwvhn6EEIdzHBVayGwa5L10G61aHBrz5wQUbik0FZTcHBWEITQeV9b0Bh/q/B3bMDQQBQIUGvZ3BAg+gJwSeXVMCdGoVA
lpc_rms=-44.91
offset=7706
pitch_keycenter=A#3
sample=Basstrombone_rip_PP_A#4.opus
</region>

<region>
end=96000
hikey=B2
hivel=127
lokey=A#2
lovel=1
lpc=6HoEQ1+JhMNLxbpCUGr8QXiP+0GpextAdUk5wc8xUMB20gbBrq8Bwb622b8ysg/AaJhhQEE70ED3IrG/kaktQIVZhUD8hHrAkY7vv6fbe0DhshLAJmlxwJO/gb/5T1dA
lpc_rms=-47.32
offset=6855
pitch_keycenter=A#2
sample=Basstrombone_rip_PP_A#3.opus
</region>

<region>
end=96000
hikey=B1
hivel=127
lokey=A#1
lovel=1
lpc=WiikQiGRLcP4aZtCStumQc7JEkEbGODAct3SwEy7qL81Nt2+mg8iwE4skr8b5vI+eKYhQH5mXz68spi/G0e/P6L8YT+ykye/y0KxP88YuT5XLIS/Jdxtv8bph8A+DYVA
lpc_rms=-51.10
offset=6735
pitch_keycenter=A#1
sample=Basstrombone_rip_PP_A#2.opus
</region>
</group>

<group>
group_label=MF
lpc_hicc1=84
lpc_locc1=43

<region>
end=96000
hikey=A3
hivel=127
lokey=G#3
lovel=1
lpc=K6v4QkRyl8PiVzNDob4YQvDYmcD/cLHBmTGMwTfDzsAQ6Z8/ml3IQDqL+0BvCQxAjflyPt6Hl7+Qar/AHJvAvwBzIr2NyEtAn0PKP2cKpby5eOg/iqBIvwOXysAjeIZA
lpc_rms=-36.22
offset=1676
pitch_keycenter=G#3
sample=Basstrombone_rip_MF_G#4.opus
</region>

<region>
end=96000
hikey=A2
hivel=127
lokey=G#2
lovel=1
lpc=Hq2fQvZkJsOvpolCDfzrQZ7B2kDbas3AxkAbwVDmxMAQo6C/tUAmQBeHOkBEy+o/20MivVitGL82kh6/C/c9vwZYrD6kx4o+hstqv+Te2L50TZA/WruFP2Cdrz9AxQfA
lpc_rms=-40.17
offset=3202
pitch_keycenter=G#2
sample=Basstrombone_rip_MF_G#3.opus
</region>

<region>
end=96000
hikey=A1
hivel=127
lokey=G#1
lovel=1
lpc=IMNeQpuq1MITagpCOnORQV+t5kD05MW+y5l3wCzFb8AL9CPArPF8v/eAaj/fJ7E/dqigPws4yj73aTi/MvU2v+sNJj4aMKo+CC1LPyls6D5wC6a+8dZDvyj+ur/Au8g/
lpc_rms=-44.42
offset=4262
pitch_keycenter=G#1
sample=Basstrombone_rip_MF_G#2.opus
</region>

<region>
end=96000
hikey=G3
hivel=127
lokey=F#3
lovel=1
lpc=EXH4Qm59ncOB3E5DsUP0QQtxg8Gtr7bBa1OIwSDD18Dc5+pAEu8eQcRTyEBorpo+FcBKwOC4TcCSaXzAEz69P3/zgL3LcR9AeEDkP2OmL79cp96/C3SPvg1AB0BIlqS/
lpc_rms=-37.11
offset=2361
pitch_keycenter=F#3
sample=Basstrombone_rip_MF_F#4.opus
</region>

<region>
end=96000
hikey=G2
hivel=127
lokey=F#2
lovel=1
lpc=doajQu5fMMPPG51CnRv/QbQfoUBj4h7BsdEnwe3NocD7Rzm8KvMvQOeBL0A7asw/f4sKvvz+gL+nZbq/VY0nP1IQrD7pusC9rpagvgg4Jz5Xb44//i7zvUqejb84GO0+
lpc_rms=-41.84
offset=3502
pitch_keycenter=F#2
sample=Basstrombone_rip_MF_F#3.opus
</region>

<region>
end=96000
hikey=G1
hivel=127
lokey=F#1
lovel=1
lpc=c/GnQusfUcOc2hFD0xzKwLvv10BFNrTBWXPjwNerGkHuZ1dAvfQSwdS5kj9AaQFBtNyGwPC/CEBzvrC/hP5iwNKhHD9yCqdAKbA9wLp9WMAJLeFAXDznv4nvjcCE1ShA
lpc_rms=-47.40
offset=2027
pitch_keycenter=F#1
sample=Basstrombone_rip_MF_F#2.opus
</region>

<region>
end=96000
hikey=F3
hivel=127
lokey=E3
lovel=1
lpc=DZwJQ9RwrsO1oWJDKe79QWvBY8B54ybCQ7KHwbYeuUBwImJAIWGOQFPWUkB68Y1AswK6vgZQvsD9l+S/2R/uP/sob8BwortAUvU7QLnd2sAOrktAZL0cP9FNPMDVkdk/
lpc_rms=-37.73
offset=5277
pitch_keycenter=E3
sample=Basstrombone_rip_MF_E4.opus
</region>

<region>
end=96000
hikey=F2
hivel=127
lokey=E2
lovel=1
lpc=ZNUMQ+2vx8MsfqtDN6wvwm0mRcEESg/CEdE2weQj1kD6aXxBcVIdQNQImMBZ8v6/57yUQOtUBL3K9OjAEepmQImQlL+SddE/UAYUvz2VhT+qJi9AV+pzwKXHbL8WnME/
lpc_rms=-42.81
offset=3890
pitch_keycenter=E2
sample=Basstrombone_rip_MF_E3.opus
</region>

<region>
end=96000
hikey=F1
hivel=127
lokey=E1
lovel=1
lpc=jri9Qup3cMPIMS9D6xqLwbL/RUH/Z73B4hQ/wXEzXkEnuMu/kNkIwTvwLUFiH5+/rnPMwJwkDEGTKAzAo2S8wCUae0CYTho/5Negv09YVb9mOk1AxEgcPtodhMCWiwtA
lpc_rms=-47.51
offset=2324
pitch_keycenter=E1
sample=Basstrombone_rip_MF_E2.opus
</region>

<region>
end=96000
hikey=D#3
hivel=127
lokey=D3
lovel=1
lpc=mDmbQmqCH8Pv+nFCb47zQcHnD0H/ipjAWtEQwfPf0sAf1OC/fQhUPzt23z9WXA9Aqom/Pzbndj1UykK/g0GJvngVGL/IoTe/pp7fvc+I/DuWlhM/mgpKP0uY7D40x3K/
lpc_rms=-38.47
offset=3182
pitch_keycenter=D3
sample=Basstrombone_rip_MF_D4.opus
</region>

<region>
end=96000
hikey=D#2
hivel=127
lokey=D2
lovel=1
lpc=Zd+0QpX6lsMqi8BDOdtkw0EVlEJjQ/vBfTXJQP67V0FtvE6/+J0IwZmAjsDWlk1BTgqdwDtlZcCxpgM+OXcFQYO7DMEVRCJAz7QZQBrKisBHVHhAsgG8vUN5KcDfQac/
lpc_rms=-44.17
offset=4947
pitch_keycenter=D2
sample=Basstrombone_rip_MF_D3.opus
</region>

<region>
end=96000
hikey=D#1
hivel=127
lokey=D1
lovel=1
lpc=DdKoQpGzhMOHt5ZDhlsPw0ktOUKALDbCMsR1QSjmkUF3MC3BMYetwGUWHUEPe2rAiVYNwQDIe0EInhHBlisLwBpTw0Be5C/AbAOOv1YLj7/QwrdAy3j0v5DpccA7cxJA
lpc_rms=-47.06
offset=11682
pitch_keycenter=D1
sample=Basstrombone_rip_MF_D2.opus
</region>

<region>
end=96000
hikey=D#4
hivel=127
lokey=C4
lovel=1
lpc=UkLVQjmkacNb9d1Cl84UQhCPREAskiPBd/cpwZ+N18CUm0rACjDjPz0ac0CiAYtAe+PgP+UbM79wvBjAW4nav+bnvb9p5x4+cnrVPxhocUCrFpU/yikfwFGvysDr6KRA
lpc_rms=-32.64
offset=3844
sample=Basstrombone_rip_MF_C5.opus
</region>

<region>
end=96000
hikey=C#3
hivel=127
lokey=C3
lovel=1
lpc=95u9QmsPSsOvc6xCB7kVQrCUzED5qgfBpswywcKa08C5vgDA5GLKPwKUXkBPj0RASnezP4v5jb9miyfAmUCFv0Jlvb1zZWo/rFoCQMj+4j/8E5Y/6Gv8v9ojD8GN6OtA
lpc_rms=-37.11
offset=2860
pitch_keycenter=C3
sample=Basstrombone_rip_MF_C4.opus
</region>

<region>
end=96000
hikey=C#2
hivel=127
lokey=C2
lovel=1
lpc=Nn6oQgCIjMMLR7JDvTE9wwccNkHJpnxBOgM9QR43jsAQvTDB7nGeQKL2P0AKLTc+7Zekvylpc8A6HaZANbn1P2c6DcGSJJZA+GnCQMfQI8FVJNxAKR9iv5hxR8CcPPs/
lpc_rms=-42.52
offset=2479
pitch_keycenter=C2
sample=Basstrombone_rip_MF_C3.opus
</region>

<region>
end=96000
hikey=B3
hivel=127
lokey=A#3
lovel=1
lpc=6gTkQkPxs8PS6c9DGfNlw6ik90JjkszC+sI4QkYpjMG83HpBUMZhwSd+nUHUlfLAKo14wSfLv0E/ZbnBaf/cQevxFcK2SwBCuCdPwHgQlcEjV5xBC/GPwcSob0GFuKvA
lpc_rms=-36.20
offset=5284
pitch_keycenter=A#3
sample=Basstrombone_rip_MF_A#4.opus
</region>

<region>
end=96000
hikey=B2
hivel=127
lokey=A#2
lovel=1
lpc=GKETQ8uL7sOzbAtEQZebw+bpUUNSrmbDFYMBQ3vSY8LjloBC7+YvwovsukFdBsHBRWpjQSyDJkH9UwbCtKYhQhIrGsIylRFCvdyowX3uVD9Q9AvAfgCOQYAbkcFEeb1A
lpc_rms=-38.88
offset=5848
pitch_keycenter=A#2
sample=Basstrombone_rip_MF_A#3.opus
</region>

<region>
end=96000
hikey=B1
hivel=127
lokey=A#1
lovel=1
lpc=6x/YQmwVr8P+Q9FDLXhkw15t2kICovLCiwy2QoV7FsIMMa1BJyJuwaGfwUCkyCS/MtDlwGGzkkE9gNTBKavHQcl1k8GcpnRB/8PJwJAxBsEn5jBBO2iwP196GcE825hA
lpc_rms=-42.36
offset=4320
pitch_keycenter=A#1
sample=Basstrombone_rip_MF_A#2.opus
</region>
</group>

<group>
group_label=FF
lpc_hicc1=127
lpc_locc1=85

<region>
end=96000
hikey=A3
hivel=127
lokey=G#3
lovel=1
lpc=YLKhQSiaeMKZ7LJCzay1wqFyoUJykYTCyApSQh/MJ8IzjARCIszGwXHFhUEf3g7BtM03QNpKLD8RiiLAEKVjQJKddcAwS4JAtgFEwO5TAz4WGTRAJWRqwMUEHUBhZTu/
lpc_rms=-29.48
offset=3974
pitch_keycenter=G#3
sample=Basstrombone_rip_FF_G#4.opus
</region>

<region>
end=96000
hikey=A2
hivel=127
lokey=G#2
lovel=1
lpc=WMlfQRipEMKfUiNCOIr2wSiyokGGNjrBs36oQKA+8b9MMrY/wE7uvzmWtD8d9fU8wIKCv8l+cz9ngzS/OMtlP/SSjL98O7E/fmN3v6Xei759M54/8DCEv7xK2T40DAy9
lpc_rms=-32.25
offset=5393
pitch_keycenter=G#2
sample=Basstrombone_rip_FF_G#3.opus
</region>

<region>
end=96000
hikey=A1
hivel=127
lokey=G#1
lovel=1
lpc=IyMmQTIK0cFwuPNBZWTYwbrAu0HMzZbBcs1gQUTBI8G/DPxAazG3wPHJU0COWqG/YIuWvlBGmT8I/9u/e2EUQKpTG8AUIgxAyLKdv9uJNzxJ7Do/Mqf1vkktdLzkSxE+
lpc_rms=-34.58
offset=8620
pitch_keycenter=G#1
sample=Basstrombone_rip_FF_G#2.opus
</region>

<region>
end=96000
hikey=G3
hivel=127
lokey=F#3
lovel=1
lpc=5Y2RQbBiSsKxWHNCO3s2wlP610FmUFLB1xKaQOqgmb8kK5w/ps4EwBQHxD9idIW+djQov6fNbT9q3Uq/PpyhP7jRyL8dRLc/I4CAv2gMaz4eNoo/PAOrv1UkUj7WzLg+
lpc_rms=-30.63
offset=4887
pitch_keycenter=F#3
sample=Basstrombone_rip_FF_F#4.opus
</region>

<region>
end=96000
hikey=G2
hivel=127
lokey=F#2
lovel=1
lpc=lKZQQQT0CMIOYyJCE/kHwmg/0EEvu5LB9BhCQWGvAMFn7b5A7NqMwMIMCkCypyK9Oppcv1eDeD9Hunu/RCzEP4hHDsC/bzRAViAHwIj1xb31X+0/HzXpvxG6Nz8s4sk9
lpc_rms=-34.08
offset=2581
pitch_keycenter=F#2
sample=Basstrombone_rip_FF_F#3.opus
</region>

<region>
end=96000
hikey=G1
hivel=127
lokey=F#1
lovel=1
lpc=TiM2QYnr8cFFNBRCEVgDwiUA2kGRXqvBeEh5QRjUK8G4SAJBQ0bYwI5NmkD1dx/A/WMrPxW1XD9yMgjAJvlHQDDraMDIAmZAYJotwKVPuD/7AB+/jDkPPzfK+b6sd2I+
lpc_rms=-37.49
offset=5271
pitch_keycenter=F#1
sample=Basstrombone_rip_FF_F#2.opus
</region>

<region>
end=96000
hikey=F3
hivel=127
lokey=E3
lovel=1
lpc=imiAQbrnMcJ9dVdCNgwrwtL08UHtqZ/BjjUwQXMLm8DNnxVA4lPev0/yND8C5AQ/BUiev2r1B0BPBhDAABcPQBPKPsCqvkxAtL+ZvzaqD8D+MY9AaHx+wNRq+T//Hr++
lpc_rms=-30.34
offset=4890
pitch_keycenter=E3
sample=Basstrombone_rip_FF_E4.opus
</region>

<region>
end=96000
hikey=F2
hivel=127
lokey=E2
lovel=1
lpc=JrhuQV/oIMJjV0BC86ocwm5z5UG2SZfBWvkmQVYllsA/pQpAfv+Gv4W/wr71mpc/RbZlv/GRND+lVSG/UAaoP/mhIMBcrkdATCMIwElGtr4a6SZAgbgrwNO0pT89q16+
lpc_rms=-35.38
offset=6429
pitch_keycenter=E2
sample=Basstrombone_rip_FF_E3.opus
</region>

<region>
end=96000
hikey=F1
hivel=127
lokey=E1
lovel=1
lpc=r5yyQWUOhMJ4665CvAyfwvvTgUKpXkPCh9gAQqdelMGkehhBiPaQwOJX3D9AehE/FfhGwHgJsUAxedPAPbrlQPK088DOVsdAQUcVwGRNur8sDxFAubOMv7UfgD5IP1U9
lpc_rms=-38.70
offset=7089
pitch_keycenter=E1
sample=Basstrombone_rip_FF_E2.opus
</region>

<region>
end=96000
hikey=D#3
hivel=127
lokey=D3
lovel=1
lpc=hkDNQc2iqcJkZgJDQzEIw1bX70IrIMTCCBWaQuMWbsKPKzpCcacNwk/OtEHl3yLBLOjfPwGqPEBhe5nAmV6aQLDln8CHnLBAclmPwLWlBEAnnaw+31jTvyLbhz+136m9
lpc_rms=-31.20
offset=5102
pitch_keycenter=D3
sample=Basstrombone_rip_FF_D4.opus
</region>

<region>
end=96000
hikey=D#2
hivel=127
lokey=D2
lovel=1
lpc=FSaKQTfNUMLbspNC/o6RwhqVeEIIpEPCmAoNQp1Bu8FwNXpBdrItwcb6ykDLGv6/KXdpv2/PF0DeF0PA9bZ3QN6/ocCjosJARc+swEIdOEAHm1G+BqODvwz1OT/tHPy9
lpc_rms=-36.65
offset=7945
pitch_keycenter=D2
sample=Basstrombone_rip_FF_D3.opus
</region>

<region>
end=96000
hikey=D#1
hivel=127
lokey=D1
lovel=1
lpc=ilsDQp4MyMKYdv5Cd9e4whd/OkIbborBS2XUP2LNjUCMcCnAx6zlvyGcN0C8+4o+t6xqwLxhhkCgxxjAMsSHP8d/575NjjK/2ZnzP9Lk+L9AEWk9RZs1QNFiSsD51pM/
lpc_rms=-40.62
offset=13581
pitch_keycenter=D1
sample=Basstrombone_rip_FF_D2.opus
</region>

<region>
end=96000
hikey=D#4
hivel=127
lokey=C4
lovel=1
lpc=nLCdQcjtY8JaEpdCOO+Kwv/dY0LXICrC6YPXQR2hacFAb/xAhl8WwNpSLcCZC2ZAJnUXwOBSB0BeM9C+ZEq9v1F0kD5BJWtAyePFwLi9nEAZyvy/ZZT4Pum16L0mIVA+
lpc_rms=-26.72
offset=7187
sample=Basstrombone_rip_FF_C5.opus
</region>

<region>
end=96000
hikey=C#3
hivel=127
lokey=C3
lovel=1
lpc=f+F5Qe8IIMJp4DJCe/YJwhWrxEGovX/BulUGQTa5L8AcPos/mo+qv4aGpD98FTW/voEFv3ISVT9QFKA7l1o2P7F0M8CdsFRAUSG7v2fsP7/MWv8/i2Tyv8q9qj9d+NW+
lpc_rms=-31.82
offset=3634
pitch_keycenter=C3
sample=Basstrombone_rip_FF_C4.opus
</region>

<region>
end=96000
hikey=C#2
hivel=127
lokey=C2
lovel=1
lpc=78PFQP8fTMGZczxBIxITwX3J+0CpWsLA8MmRQLVzVcAo0SZAUhfyv5W2az+J3B++Y/2avo4PHz969z+/mGCRP4vGsr9Yi60/XjNWv/9NPT7um0E+jMMVPJ1HNr6lbvY9
lpc_rms=-36.65
offset=6200
pitch_keycenter=C2
sample=Basstrombone_rip_FF_C3.opus
</region>

<region>
end=96000
hikey=B3
hivel=127
lokey=A#3
lovel=1
lpc=Kz2FQYFiM8JH1lhCQK41wgqYCUKwXMLBbX92QbOSAMExAmpAteqXvxb4JcBujMRAkBq6wLC5W0Cu88O/DRvhPkn5Fz+git2/egRQQFWgcsD+ejRAJn64v5YxLz79z9U+
lpc_rms=-27.97
offset=9137
pitch_keycenter=A#3
sample=Basstrombone_rip_FF_A#4.opus
</region>

<region>
end=96000
hikey=B2
hivel=127
lokey=A#2
lovel=1
lpc=RkGvQRRphcL9ArpC9bKwwru7jkJ710rCCkD9QUpajsEJjxJBcsqAwID0Ez/+N9c/8X5KwB53ikA78prAG+maQJfHn8CM0qxA/3dtwNf2jz6f6yZArIBEwJmXqT+AYUM9
lpc_rms=-31.41
offset=8165
pitch_keycenter=A#2
sample=Basstrombone_rip_FF_A#3.opus
</region>

<region>
end=96000
hikey=B1
hivel=127
lokey=A#1
lovel=1
lpc=ySxcQf/oGcLAV0hCTxo7wnVNIEJOzv3BCyi2QbNneMGsGDJBNTb8wIrjj0BA15+/n5qRv4RPEkAhEEDA3bmDQKL7msAxdZ5A+Ll7wIq/EUAh1jK/G6QyPpy58b4hMeI+
lpc_rms=-34.17
offset=1749
pitch_keycenter=A#1
sample=Basstrombone_rip_FF_A#2.opus
</region>
</group>